<svg width="131" height="27" viewBox="0 0 131 27" xmlns="http://www.w3.org/2000/svg"><title>Fill 1</title><path d="M11.981 22.185c-2.134.056-2.547-1.47-2.565-2.578v-7.684h4.975V7.469H9.436V.85H5.53c-.065 0-.177.055-.192.196C5.108 3.084 4.135 6.662.09 8.09v3.832h3.078v8.089c0 2.924 1.821 7.08 7.629 6.981 1.96-.033 4.137-.837 4.62-1.531l-1.284-3.729c-.497.231-1.444.434-2.153.452m23.816-.474V7.47H27.06v4.183h1.683c.553 0 .786.236.793.753L29.53 18.9c0 .637-.459 3.028-3.64 3.088-2.17.042-2.627-1.24-2.627-2.92V7.47H16.83v11.932c0 3.019 1.376 7.769 7.799 7.594 2.107-.057 4.523-1.12 5.778-2.677l.053 2.398h7.169v-4.09s-.58-.046-1.015-.074c-.506-.034-.817-.307-.817-.84m37.282-.041v-5.839c0-2.08-.024-4.231-1.4-5.986-1.259-1.606-3.348-2.785-6.52-2.632-2.107.102-4.355 1.082-5.595 2.762l-.195.247-.12-.143c-1.274-1.845-3.311-3.019-6.483-2.866-2.107.102-4.355 1.082-5.595 2.762l-.187-2.507h-7.773v4.183l1.789.026c.553 0 .787.236.794.753v9.24c0 .535-.313.827-.82.86-.434.028-1.313.091-1.313.091v4.091l10.513.003v-4.094l-1.313-.091c-.507-.035-.82-.325-.82-.86 0 0 .01-5.225.01-6.27 0-1.046.861-3.19 3.602-3.19 2.21 0 2.664 1.35 2.664 2.92l.002 6.54c0 .536-.313.827-.82.86l-1.313.092v4.09h10.502v-4.091l-1.314-.091c-.507-.035-.814-.325-.814-.86h-.017s.01-5.225.01-6.27c0-1.046.769-3.19 3.51-3.19 2.21 0 2.764 1.35 2.764 2.92v5.485l-.001 1.056c0 .535-.314.826-.82.86-.435.028-1.313.091-1.313.091v4.09h10.514v-4.091l-1.313-.091c-.507-.035-.815-.325-.815-.86m13.867.562c-.874.064-2.492-.083-3.533-1.912v-2.68l.001-.002v-3.1c0-1.34 1.234-2.516 3.147-2.587 1.935-.072 3.649 1.252 3.649 4.991 0 5.044-2.208 5.21-3.264 5.289m.952-15.04c-1.59.07-3.267.68-4.485 1.74V0h-2.25s-3.68 1.31-6.53 1.66l-.092 4.09 1.801.003c.553 0 .791.236.798.753v20.193l5.147-.005.735-1.657c.158.088 2.519 2.311 6.29 1.866 4.747-.56 7.24-4.325 7.24-10.038 0-2.997-.918-10.01-8.654-9.671m39.556 3.713c-.21-4.563-6.378-4.773-9.604-1.691l-.588-1.767h-7.456v4.182l1.564-.002c.553 0 .758.236.766.753v9.272c0 .535-.315.827-.82.86-.436.029-1.31.091-1.31.091v4.091h10.5v-4.09s-.868-.063-1.303-.092c-.507-.033-.82-.325-.82-.86l-.003-6.287c0-1.178.27-3.145 2.346-3.649.256 1.968 2.153 2.555 3.078 2.555 2.337 0 3.65-1.753 3.65-3.366m-21.65 10.747L105.808 0h-2.274s-3.778 1.369-6.499 1.66v4.09h1.718c.553 0 .784.236.791.753v15.151c0 .535-.312.827-.819.86l-1.407.092v4.09h10.71v-4.09l-1.405-.092c-.508-.033-.82-.325-.82-.86m20.613-2.1c-2.079 0-3.764 1.653-3.764 3.693 0 2.037 1.685 3.691 3.764 3.691 2.08 0 3.765-1.654 3.765-3.691 0-2.04-1.685-3.693-3.765-3.693" fill="#FFF" fill-rule="evenodd"/></svg>